<svg xmlns="http://www.w3.org/2000/svg" width="1024" height="1024" viewBox="0 0 1024 1024">
<g>
<path d="M 302.15 620.22 C298.30,622.04 292.31,622.37 287.79,621.01 C277.99,618.06 271.37,605.90 274.04,595.76 C275.02,592.06 279.01,587.64 304.30,562.26 C320.32,546.18 334.98,532.29 336.88,531.39 C339.31,530.23 341.85,529.91 345.54,530.29 C350.54,530.81 350.91,530.67 354.38,527.12 C356.37,525.08 357.99,522.76 357.97,521.96 C357.96,521.16 356.15,517.80 353.95,514.50 C349.23,507.40 344.37,495.28 342.34,485.54 C340.44,476.43 340.49,459.42 342.46,450.15 C349.32,417.78 374.21,391.63 406.50,382.88 C417.72,379.84 438.96,379.85 450.45,382.91 C479.60,390.66 502.12,412.45 511.50,442.00 C513.73,449.02 514.28,452.93 514.68,464.50 C515.11,477.16 514.91,479.46 512.60,488.50 C511.12,494.29 507.88,502.88 504.91,508.90 C500.34,518.14 498.63,520.44 489.63,529.40 C475.63,543.35 461.04,551.40 443.81,554.66 C433.79,556.56 415.62,555.99 406.50,553.48 C398.54,551.29 385.01,544.91 379.04,540.53 C376.40,538.59 373.86,537.00 373.41,537.00 C372.96,537.00 370.93,538.61 368.91,540.58 C365.30,544.12 365.25,544.26 365.75,550.50 C366.18,555.78 365.91,557.40 364.16,560.17 C360.88,565.38 306.24,618.29 302.15,620.22 ZM 303.94 541.56 C294.91,550.60 287.17,558.00 286.73,558.00 L 286.68 558.00 C286.57,558.00 286.48,558.00 286.38,557.98 C285.76,557.82 285.42,556.54 282.66,546.50 C274.45,516.60 270.09,490.71 268.02,459.50 C267.48,451.25 267.02,418.79 267.02,387.36 L 267.00 330.22 L 277.75 323.25 C313.76,299.91 357.84,279.56 396.50,268.44 C431.96,258.25 469.53,251.77 501.76,250.30 L 515.02 249.70 L 514.76 301.10 L 514.50 352.50 L 473.50 352.50 L 473.23 324.25 C472.98,297.14 472.89,296.00 471.05,296.00 C467.89,296.00 441.32,300.75 429.50,303.43 C402.15,309.63 368.71,321.60 343.62,334.19 C330.48,340.78 316.35,348.71 312.25,351.79 L 309.00 354.24 L 309.00 398.37 C309.01,460.05 310.73,482.86 317.67,513.31 L 320.36 525.11 ZM 515.00 678.00 C515.00,758.97 514.74,779.99 513.75,779.93 C510.56,779.75 481.94,767.49 465.60,759.30 C446.37,749.66 421.99,734.31 402.50,719.58 C382.41,704.40 356.42,679.25 340.87,659.97 C331.98,648.94 319.00,630.23 319.00,628.44 C319.00,627.03 346.50,599.63 348.31,599.25 C348.96,599.11 351.75,602.66 354.50,607.15 C374.84,640.33 407.27,673.07 444.00,697.49 C455.74,705.29 470.57,713.95 472.25,713.99 C472.66,713.99 473.00,692.17 473.00,665.50 L 473.00 617.00 L 442.00 617.00 L 442.00 576.00 L 515.00 576.00 ZM 415.00 535.53 C423.07,537.06 434.72,536.81 442.65,534.94 C445.32,534.31 452.00,531.63 457.50,528.99 C465.31,525.24 468.96,522.74 474.17,517.59 C482.90,508.96 488.23,500.82 491.40,491.27 C498.99,468.43 496.18,447.19 482.99,427.64 C475.59,416.68 458.81,405.01 445.44,401.53 C438.08,399.61 419.60,399.57 411.73,401.45 C398.92,404.51 384.97,413.32 376.14,423.93 C369.49,431.92 366.71,436.82 363.36,446.50 C360.86,453.70 360.59,455.85 360.58,468.00 C360.57,480.00 360.87,482.39 363.25,489.50 C370.78,511.97 392.50,531.29 415.00,535.53 ZM 416.78 500.84 L 416.50 513.50 L 407.49 513.78 C401.33,513.98 397.92,513.66 396.73,512.78 C395.10,511.59 394.99,508.43 395.24,467.50 L 395.50 423.50 L 422.00 423.50 C447.14,423.50 448.74,423.61 453.23,425.69 C460.76,429.16 464.75,432.78 467.73,438.85 C470.25,444.00 470.50,445.47 470.48,455.50 C470.46,465.47 470.20,466.98 467.77,471.64 C466.29,474.46 463.17,478.41 460.83,480.41 C454.51,485.83 448.84,487.26 431.78,487.76 L 417.06 488.18 ZM 417.67 468.33 C418.71,469.37 439.57,469.12 442.43,468.02 C446.50,466.48 448.99,461.40 449.00,454.65 C449.00,449.33 448.69,448.49 445.60,445.40 L 442.20 442.00 L 417.00 442.00 L 417.00 454.83 C417.00,461.89 417.30,467.97 417.67,468.33 Z" fill="rgb(31,75,87)"/>
<path d="M 546.00 774.73 C545.38,774.99 544.79,775.24 544.22,775.47 C535.98,778.92 533.91,779.78 533.17,779.13 C532.88,778.87 532.79,778.36 532.61,777.68 C531.87,774.91 531.84,738.19 532.58,735.44 C532.99,733.92 536.65,731.86 546.52,727.58 C571.12,716.93 597.72,701.11 620.04,683.86 C632.53,674.21 659.22,648.01 669.31,635.50 C700.25,597.13 722.19,546.11 730.02,494.32 C733.30,472.59 733.98,457.62 733.99,405.90 C734.00,357.05 733.88,353.20 732.25,351.80 C729.83,349.72 715.32,341.37 704.50,335.83 C682.56,324.59 649.66,312.02 626.50,306.02 C598.40,298.73 579.77,295.65 546.00,292.68 L 532.50 291.50 L 532.50 250.50 L 538.50 250.17 C547.70,249.67 587.57,254.23 602.02,257.45 C605.59,258.24 612.55,259.78 617.50,260.87 C643.23,266.53 660.26,271.82 688.80,283.03 C713.11,292.58 754.82,314.66 771.75,326.93 L 776.00 330.01 L 775.99 391.26 C775.99,424.94 775.55,457.67 775.02,464.00 C773.58,481.13 772.02,495.00 771.02,499.50 C770.53,501.70 769.61,506.42 768.98,510.00 C760.67,556.73 743.52,600.34 718.45,638.50 C681.26,695.11 618.95,744.33 546.00,774.73 ZM 574.25 531.25 C572.92,532.74 570.84,533.00 560.35,533.00 C559.67,533.00 559.03,533.00 558.42,533.00 C552.20,533.01 549.28,533.02 548.39,531.68 C547.61,530.49 548.44,528.24 550.01,523.98 C550.19,523.51 550.37,523.02 550.56,522.50 C566.04,480.23 584.00,429.61 584.00,428.27 C584.00,428.10 591.31,428.07 600.25,428.23 L 616.50 428.50 L 619.55 437.50 C621.23,442.45 623.78,449.65 625.22,453.50 C626.67,457.35 629.65,465.45 631.84,471.50 C634.04,477.55 639.75,493.18 644.53,506.23 C649.32,519.28 652.96,530.65 652.64,531.51 C652.13,532.82 650.06,533.02 639.27,532.78 L 626.50 532.50 L 622.55 520.75 L 618.59 509.00 L 582.16 509.00 L 578.98 519.25 C577.24,524.89 575.11,530.29 574.25,531.25 ZM 547.58 442.39 C543.05,444.55 539.24,444.38 534.88,441.85 C530.72,439.44 528.00,434.52 528.00,429.40 C528.00,424.93 529.38,422.20 533.33,418.84 L 536.45 416.18 L 536.13 374.03 L 535.81 331.87 L 560.40 307.00 L 577.21 307.00 L 584.43 314.00 L 591.65 321.00 L 611.58 321.01 L 631.50 321.03 L 647.75 337.06 C664.05,353.14 665.85,355.75 662.80,358.80 C662.14,359.46 660.86,360.00 659.96,360.00 C659.05,360.00 651.36,353.01 642.87,344.47 L 627.43 328.95 L 611.46 329.22 L 595.50 329.50 L 594.50 349.90 L 566.93 378.91 L 567.50 399.50 L 588.93 399.77 C602.53,399.94 610.73,399.67 611.38,399.02 C611.94,398.46 613.86,398.00 615.64,398.00 C621.45,398.00 624.10,404.96 619.81,408.96 C617.23,411.37 613.75,411.61 612.00,409.50 C610.95,408.24 606.67,408.00 584.99,408.00 L 559.23 408.00 L 558.63 405.75 C557.90,403.01 558.02,389.94 558.87,380.73 L 559.50 373.96 L 586.00 347.30 L 585.97 337.40 L 585.96 336.80 C585.95,331.78 585.94,329.24 585.00,327.12 C584.01,324.86 581.96,323.06 577.75,319.25 C573.68,315.57 572.44,315.00 568.53,315.00 C564.13,315.00 563.76,315.25 554.53,324.75 L 545.06 334.50 L 545.03 344.75 C545.01,350.39 545.35,355.00 545.77,355.00 C547.52,355.00 562.00,339.33 562.00,337.45 C562.00,334.11 564.84,331.00 567.90,331.00 C574.21,331.00 576.44,339.55 571.00,342.86 C569.34,343.86 562.82,350.11 556.50,356.75 L 545.00 368.81 L 545.02 391.66 C545.02,404.22 545.41,415.10 545.88,415.84 C546.35,416.58 547.78,417.70 549.06,418.34 C557.70,422.65 556.75,438.04 547.58,442.39 ZM 714.95 460.55 C710.41,465.39 703.07,461.94 704.53,455.65 C704.94,453.92 705.45,445.75 705.67,437.50 L 706.08 422.50 L 691.50 408.15 L 674.66 407.83 L 657.83 407.51 L 654.84 410.85 L 651.85 414.20 L 652.32 427.85 C652.58,435.36 653.12,442.98 653.52,444.79 C654.87,450.98 648.41,454.41 643.90,449.90 C642.24,448.24 641.95,447.15 642.53,444.65 C642.94,442.92 643.45,434.66 643.68,426.30 L 644.10 411.09 L 632.83 399.55 L 621.56 388.00 L 605.84 388.00 C596.44,388.00 589.87,388.40 589.50,389.00 C587.39,392.42 580.00,387.85 580.00,383.12 C580.00,377.76 585.60,375.41 591.00,378.50 C592.87,379.57 597.52,379.94 609.55,379.96 L 625.59 380.00 L 636.55 391.99 C642.57,398.58 647.88,403.98 648.35,403.99 C648.81,403.99 650.61,402.99 652.35,401.75 C655.21,399.70 656.95,399.45 671.50,399.00 L 687.50 398.50 L 687.81 393.64 C688.34,385.37 687.54,385.01 668.60,384.93 C659.74,384.89 651.73,384.55 650.79,384.18 C649.85,383.81 644.59,379.11 639.10,373.75 C631.86,366.67 628.44,364.00 626.62,364.00 C625.25,364.00 623.84,364.45 623.50,365.00 C622.57,366.51 617.93,366.12 614.04,364.20 C603.76,359.15 603.27,344.95 613.21,340.14 C618.79,337.44 621.49,337.46 626.50,340.28 C631.23,342.94 634.00,347.86 634.00,353.63 C634.00,357.55 634.47,358.19 643.75,366.88 L 653.50 376.00 L 687.58 376.00 L 691.79 380.29 L 696.00 384.58 L 696.00 400.46 L 714.43 418.97 L 715.09 436.23 C715.45,445.73 716.08,454.53 716.50,455.80 C717.07,457.51 716.67,458.72 714.95,460.55 ZM 691.50 426.50 L 691.50 532.50 L 679.28 532.78 C667.27,533.06 667.04,533.02 666.50,530.78 C666.20,529.53 666.07,505.55 666.22,477.50 L 666.50 426.50 ZM 611.92 668.46 C608.69,671.37 607.24,671.99 603.75,671.96 C598.37,671.91 594.75,669.95 592.09,665.65 C588.15,659.27 589.92,650.99 596.32,645.97 C598.41,644.32 599.00,643.00 599.00,639.95 C599.00,636.38 598.31,635.37 591.01,628.27 L 583.01 620.50 L 583.01 608.05 L 583.00 595.59 L 570.50 582.96 L 558.00 570.33 L 558.00 559.14 C558.00,548.09 558.03,547.94 560.58,546.78 C565.36,544.60 566.46,546.48 566.79,557.35 L 567.07 566.98 L 579.51 579.49 L 591.95 592.00 L 602.75 592.00 L 616.04 605.00 C628.42,617.11 629.59,618.00 633.18,618.00 C635.29,618.00 637.85,617.48 638.86,616.85 C641.46,615.23 645.87,616.61 647.16,619.45 C649.84,625.34 644.87,630.44 638.63,628.18 C636.83,627.53 633.67,627.00 631.61,627.00 C629.55,627.00 627.11,626.58 626.18,626.06 C625.26,625.54 618.88,619.67 612.00,613.02 C594.80,596.38 592.00,595.82 592.00,609.08 L 592.00 617.23 L 599.50 624.94 C606.93,632.57 607.00,632.69 607.00,637.98 C607.00,642.92 607.29,643.58 611.04,647.03 C618.35,653.78 618.70,662.33 611.92,668.46 ZM 686.68 579.06 C680.16,582.02 676.68,581.31 671.45,575.95 L 667.59 572.00 L 641.46 572.00 L 621.54 552.00 L 616.23 552.00 C611.36,552.00 610.60,552.33 607.04,555.96 C604.90,558.14 601.99,560.21 600.57,560.57 C591.11,562.95 581.77,553.50 583.93,543.76 C585.38,537.24 589.81,534.00 597.27,534.00 C602.98,534.00 603.23,534.12 607.91,539.00 C612.65,543.95 612.77,544.00 618.90,544.00 L 625.11 544.00 L 634.90 553.50 L 644.69 563.00 L 666.67 563.00 L 669.85 559.03 C678.25,548.59 694.00,553.21 694.00,566.13 C694.00,572.84 691.80,576.74 686.68,579.06 ZM 574.36 687.62 C570.03,689.43 568.35,689.34 563.21,687.01 C557.86,684.58 554.41,677.98 555.48,672.24 C556.13,668.79 555.86,668.40 546.32,658.83 L 536.50 648.97 L 536.50 608.50 L 544.50 608.50 L 544.77 627.13 L 545.04 645.77 L 553.50 653.88 L 561.95 662.00 L 568.57 662.00 C576.63,662.00 580.38,664.20 582.10,669.95 C584.31,677.30 581.00,684.85 574.36,687.62 ZM 669.63 606.89 C664.15,612.01 652.81,610.07 649.82,603.50 C648.84,601.36 647.95,600.97 643.59,600.80 C640.79,600.69 637.15,600.65 635.50,600.72 C629.59,600.95 626.44,599.90 622.50,596.39 C614.52,589.27 599.00,573.69 599.00,572.79 C599.00,572.28 599.47,571.00 600.04,569.93 C602.18,565.92 605.18,567.65 617.50,580.00 L 629.47 592.00 L 647.80 592.00 L 649.88 588.48 C652.23,584.50 655.32,583.00 661.20,583.00 C671.07,583.00 677.95,593.43 673.60,601.80 C672.82,603.28 671.04,605.58 669.63,606.89 ZM 580.96 650.07 C579.16,653.43 576.72,652.14 568.25,643.32 L 560.00 634.73 L 559.99 621.11 L 559.98 607.50 L 550.38 597.50 C540.78,587.49 537.55,584.53 536.65,580.98 C536.20,579.21 536.33,577.30 536.53,574.28 C536.58,573.51 536.64,572.67 536.69,571.74 C537.04,565.55 536.82,559.40 536.13,556.19 C534.86,550.26 535.68,547.55 539.05,546.48 C540.23,546.11 542.05,546.45 543.31,547.29 C545.44,548.70 545.49,549.20 545.14,564.42 L 544.78 580.10 L 556.39 591.85 L 568.00 603.60 L 568.00 630.55 L 575.00 637.50 C581.98,644.43 582.92,646.41 580.96,650.07 ZM 589.00 486.97 C589.00,488.89 589.61,489.00 600.03,489.00 C608.70,489.00 611.18,488.69 611.61,487.56 C612.22,485.99 602.46,454.32 600.72,452.19 C599.34,450.50 598.56,451.82 596.60,459.13 C595.80,462.08 593.77,469.10 592.08,474.72 C590.39,480.34 589.00,485.85 589.00,486.97 ZM 616.19 355.96 C617.39,357.08 619.05,358.00 619.87,358.00 C621.91,358.00 626.00,354.03 626.00,352.05 C626.00,346.59 618.60,343.88 615.56,348.22 C613.42,351.27 613.61,353.55 616.19,355.96 ZM 537.65 434.17 C541.23,438.13 547.46,434.87 546.82,429.37 C546.62,427.59 545.54,426.03 543.87,425.09 C541.51,423.77 540.96,423.80 538.62,425.33 C535.56,427.33 535.12,431.37 537.65,434.17 ZM 565.00 678.50 C567.78,681.85 575.00,679.09 575.00,674.67 C575.00,671.73 572.10,669.00 568.97,669.00 C565.72,669.00 563.75,671.08 563.75,674.50 C563.75,675.87 564.31,677.67 565.00,678.50 ZM 593.59 551.69 C598.37,555.19 604.69,549.99 602.22,544.59 C601.30,542.57 600.33,542.00 597.77,542.02 C595.97,542.02 593.91,542.41 593.19,542.86 C591.11,544.18 591.38,550.08 593.59,551.69 ZM 657.65 600.17 C658.57,601.18 660.14,602.00 661.15,602.00 C663.60,602.00 667.00,598.51 667.00,596.00 C667.00,593.76 663.69,590.00 661.72,590.00 C656.93,590.00 654.33,596.50 657.65,600.17 ZM 599.65 662.17 C601.81,664.55 604.51,664.49 607.00,662.00 C609.23,659.77 609.50,657.80 607.96,654.93 C606.78,652.72 601.15,652.25 599.20,654.20 C597.48,655.92 597.72,660.03 599.65,662.17 ZM 677.58 571.09 C679.88,573.63 681.59,573.50 684.55,570.55 C687.31,567.78 687.58,566.18 685.71,563.62 C684.77,562.33 683.35,561.94 680.46,562.18 C676.78,562.48 676.48,562.73 676.18,565.84 C675.98,567.98 676.48,569.88 677.58,571.09 Z" fill="rgb(228,173,45)"/>
<path d="M 0.00 512.00 L 0.00 0.00 L 512.00 0.00 L 1024.00 0.00 L 1024.00 512.00 L 1024.00 1024.00 L 512.00 1024.00 L 0.00 1024.00 L 0.00 512.00 ZM 515.00 678.00 L 515.00 576.00 L 478.50 576.00 L 442.00 576.00 L 442.00 596.50 L 442.00 617.00 L 457.50 617.00 L 473.00 617.00 L 473.00 665.50 C473.00,692.17 472.66,713.99 472.25,713.99 C470.57,713.95 455.74,705.29 444.00,697.49 C407.27,673.07 374.84,640.33 354.50,607.15 C351.75,602.66 348.96,599.11 348.31,599.25 C346.50,599.63 319.00,627.03 319.00,628.44 C319.00,630.23 331.98,648.94 340.87,659.97 C356.42,679.25 382.41,704.40 402.50,719.58 C421.99,734.31 446.37,749.66 465.60,759.30 C481.94,767.49 510.56,779.75 513.75,779.93 C514.74,779.99 515.00,758.97 515.00,678.00 ZM 546.00 774.73 C618.95,744.33 681.26,695.11 718.45,638.50 C743.52,600.34 760.67,556.73 768.98,510.00 C769.61,506.42 770.53,501.70 771.02,499.50 C772.02,495.00 773.58,481.13 775.02,464.00 C775.55,457.67 775.99,424.94 775.99,391.26 L 776.00 330.01 L 771.75 326.93 C754.82,314.66 713.11,292.58 688.80,283.03 C660.26,271.82 643.23,266.53 617.50,260.87 C612.55,259.78 605.59,258.24 602.02,257.45 C587.57,254.23 547.70,249.67 538.50,250.17 L 532.50 250.50 L 532.50 271.00 L 532.50 291.50 L 546.00 292.68 C579.77,295.65 598.40,298.73 626.50,306.02 C649.66,312.02 682.56,324.59 704.50,335.83 C715.32,341.37 729.83,349.72 732.25,351.80 C733.88,353.20 734.00,357.05 733.99,405.90 C733.98,457.62 733.30,472.59 730.02,494.32 C722.19,546.11 700.25,597.13 669.31,635.50 C659.22,648.01 632.53,674.21 620.04,683.86 C597.72,701.11 571.12,716.93 546.52,727.58 C536.65,731.86 532.99,733.92 532.58,735.44 C531.84,738.19 531.87,774.91 532.61,777.68 C533.28,780.17 532.60,780.32 546.00,774.73 ZM 574.36 687.62 C581.00,684.85 584.31,677.30 582.10,669.95 C580.38,664.20 576.63,662.00 568.57,662.00 L 561.95 662.00 L 553.50 653.88 L 545.04 645.77 L 544.77 627.13 L 544.50 608.50 L 540.50 608.50 L 536.50 608.50 L 536.50 628.73 L 536.50 648.97 L 546.32 658.83 C555.86,668.40 556.13,668.79 555.48,672.24 C554.41,677.98 557.86,684.58 563.21,687.01 C568.35,689.34 570.03,689.43 574.36,687.62 ZM 611.92 668.46 C618.70,662.33 618.35,653.78 611.04,647.03 C607.29,643.58 607.00,642.92 607.00,637.98 C607.00,632.69 606.93,632.57 599.50,624.94 L 592.00 617.23 L 592.00 609.08 C592.00,595.82 594.80,596.38 612.00,613.02 C618.88,619.67 625.26,625.54 626.18,626.06 C627.11,626.58 629.55,627.00 631.61,627.00 C633.67,627.00 636.83,627.53 638.63,628.18 C644.87,630.44 649.84,625.34 647.16,619.45 C645.87,616.61 641.46,615.23 638.86,616.85 C637.85,617.48 635.29,618.00 633.18,618.00 C629.59,618.00 628.42,617.11 616.04,605.00 L 602.75 592.00 L 597.35 592.00 L 591.95 592.00 L 579.51 579.49 L 567.07 566.98 L 566.79 557.35 C566.46,546.48 565.36,544.60 560.58,546.78 C558.03,547.94 558.00,548.09 558.00,559.14 L 558.00 570.33 L 570.50 582.96 L 583.00 595.59 L 583.01 608.05 L 583.01 620.50 L 591.01 628.27 C598.31,635.37 599.00,636.38 599.00,639.95 C599.00,643.00 598.41,644.32 596.32,645.97 C589.92,650.99 588.15,659.27 592.09,665.65 C594.75,669.95 598.37,671.91 603.75,671.96 C607.24,671.99 608.69,671.37 611.92,668.46 ZM 580.96 650.07 C582.92,646.41 581.98,644.43 575.00,637.50 L 568.00 630.55 L 568.00 617.08 L 568.00 603.60 L 556.39 591.85 L 544.78 580.10 L 545.14 564.42 C545.49,549.20 545.44,548.70 543.31,547.29 C542.05,546.45 540.23,546.11 539.05,546.48 C535.68,547.55 534.86,550.26 536.13,556.19 C536.82,559.40 537.04,565.55 536.69,571.74 C536.02,583.59 534.76,581.22 550.38,597.50 L 559.98 607.50 L 559.99 621.11 L 560.00 634.73 L 568.25 643.32 C576.72,652.14 579.16,653.43 580.96,650.07 ZM 302.15 620.22 C306.24,618.29 360.88,565.38 364.16,560.17 C365.91,557.40 366.18,555.78 365.75,550.50 C365.25,544.26 365.30,544.12 368.91,540.58 C370.93,538.61 372.96,537.00 373.41,537.00 C373.86,537.00 376.40,538.59 379.04,540.53 C385.01,544.91 398.54,551.29 406.50,553.48 C415.62,555.99 433.79,556.56 443.81,554.66 C461.04,551.40 475.63,543.35 489.63,529.40 C498.63,520.44 500.34,518.14 504.91,508.90 C507.88,502.88 511.12,494.29 512.60,488.50 C514.91,479.46 515.11,477.16 514.68,464.50 C514.28,452.93 513.73,449.02 511.50,442.00 C502.12,412.45 479.60,390.66 450.45,382.91 C438.96,379.85 417.72,379.84 406.50,382.88 C374.21,391.63 349.32,417.78 342.46,450.15 C340.49,459.42 340.44,476.43 342.34,485.54 C344.37,495.28 349.23,507.40 353.95,514.50 C356.15,517.80 357.96,521.16 357.97,521.96 C357.99,522.76 356.37,525.08 354.38,527.12 C350.91,530.67 350.54,530.81 345.54,530.29 C341.85,529.91 339.31,530.23 336.88,531.39 C334.98,532.29 320.32,546.18 304.30,562.26 C279.01,587.64 275.02,592.06 274.04,595.76 C271.37,605.90 277.99,618.06 287.79,621.01 C292.31,622.37 298.30,622.04 302.15,620.22 ZM 669.63 606.89 C671.04,605.58 672.82,603.28 673.60,601.80 C677.95,593.43 671.07,583.00 661.20,583.00 C655.32,583.00 652.23,584.50 649.88,588.48 L 647.80 592.00 L 638.64 592.00 L 629.47 592.00 L 617.50 580.00 C605.18,567.65 602.18,565.92 600.04,569.93 C599.47,571.00 599.00,572.28 599.00,572.79 C599.00,573.69 614.52,589.27 622.50,596.39 C626.44,599.90 629.59,600.95 635.50,600.72 C637.15,600.65 640.79,600.69 643.59,600.80 C647.95,600.97 648.84,601.36 649.82,603.50 C652.81,610.07 664.15,612.01 669.63,606.89 ZM 686.68 579.06 C691.80,576.74 694.00,572.84 694.00,566.13 C694.00,553.21 678.25,548.59 669.85,559.03 L 666.67 563.00 L 655.68 563.00 L 644.69 563.00 L 634.90 553.50 L 625.11 544.00 L 618.90 544.00 C612.77,544.00 612.65,543.95 607.91,539.00 C603.23,534.12 602.98,534.00 597.27,534.00 C589.81,534.00 585.38,537.24 583.93,543.76 C581.77,553.50 591.11,562.95 600.57,560.57 C601.99,560.21 604.90,558.14 607.04,555.96 C610.60,552.33 611.36,552.00 616.23,552.00 L 621.54 552.00 L 631.50 562.00 L 641.46 572.00 L 654.53 572.00 L 667.59 572.00 L 671.45 575.95 C676.68,581.31 680.16,582.02 686.68,579.06 ZM 303.94 541.56 L 320.36 525.11 L 317.67 513.31 C310.73,482.86 309.01,460.05 309.00,398.37 L 309.00 354.24 L 312.25 351.79 C316.35,348.71 330.48,340.78 343.62,334.19 C368.71,321.60 402.15,309.63 429.50,303.43 C441.32,300.75 467.89,296.00 471.05,296.00 C472.89,296.00 472.98,297.14 473.23,324.25 L 473.50 352.50 L 494.00 352.50 L 514.50 352.50 L 514.76 301.10 L 515.02 249.70 L 501.76 250.30 C469.53,251.77 431.96,258.25 396.50,268.44 C357.84,279.56 313.76,299.91 277.75,323.25 L 267.00 330.22 L 267.02 387.36 C267.02,418.79 267.48,451.25 268.02,459.50 C270.09,490.71 274.45,516.60 282.66,546.50 C285.88,558.21 285.81,558.00 286.73,558.00 C287.17,558.00 294.91,550.60 303.94,541.56 ZM 574.25 531.25 C575.11,530.29 577.24,524.89 578.98,519.25 L 582.16 509.00 L 600.37 509.00 L 618.59 509.00 L 622.55 520.75 L 626.50 532.50 L 639.27 532.78 C650.06,533.02 652.13,532.82 652.64,531.51 C652.96,530.65 649.32,519.28 644.53,506.23 C639.75,493.18 634.04,477.55 631.84,471.50 C629.65,465.45 626.67,457.35 625.22,453.50 C623.78,449.65 621.23,442.45 619.55,437.50 L 616.50 428.50 L 600.25 428.23 C591.31,428.07 584.00,428.10 584.00,428.27 C584.00,429.61 566.04,480.23 550.56,522.50 C546.52,533.54 546.01,533.00 560.35,533.00 C570.84,533.00 572.92,532.74 574.25,531.25 ZM 691.50 479.50 L 691.50 426.50 L 679.00 426.50 L 666.50 426.50 L 666.22 477.50 C666.07,505.55 666.20,529.53 666.50,530.78 C667.04,533.02 667.27,533.06 679.28,532.78 L 691.50 532.50 L 691.50 479.50 ZM 714.95 460.55 C716.67,458.72 717.07,457.51 716.50,455.80 C716.08,454.53 715.45,445.73 715.09,436.23 L 714.43 418.97 L 705.21 409.71 L 696.00 400.46 L 696.00 392.52 L 696.00 384.58 L 691.79 380.29 L 687.58 376.00 L 670.54 376.00 L 653.50 376.00 L 643.75 366.88 C634.47,358.19 634.00,357.55 634.00,353.63 C634.00,347.86 631.23,342.94 626.50,340.28 C621.49,337.46 618.79,337.44 613.21,340.14 C603.27,344.95 603.76,359.15 614.04,364.20 C617.93,366.12 622.57,366.51 623.50,365.00 C623.84,364.45 625.25,364.00 626.62,364.00 C628.44,364.00 631.86,366.67 639.10,373.75 C644.59,379.11 649.85,383.81 650.79,384.18 C651.73,384.55 659.74,384.89 668.60,384.93 C687.54,385.01 688.34,385.37 687.81,393.64 L 687.50 398.50 L 671.50 399.00 C656.95,399.45 655.21,399.70 652.35,401.75 C650.61,402.99 648.81,403.99 648.35,403.99 C647.88,403.98 642.57,398.58 636.55,391.99 L 625.59 380.00 L 609.55 379.96 C597.52,379.94 592.87,379.57 591.00,378.50 C585.60,375.41 580.00,377.76 580.00,383.12 C580.00,387.85 587.39,392.42 589.50,389.00 C589.87,388.40 596.44,388.00 605.84,388.00 L 621.56 388.00 L 632.83 399.55 L 644.10 411.09 L 643.68 426.30 C643.45,434.66 642.94,442.92 642.53,444.65 C641.95,447.15 642.24,448.24 643.90,449.90 C648.41,454.41 654.87,450.98 653.52,444.79 C653.12,442.98 652.58,435.36 652.32,427.85 L 651.85 414.20 L 654.84 410.85 L 657.83 407.51 L 674.66 407.83 L 691.50 408.15 L 698.79 415.32 L 706.08 422.50 L 705.67 437.50 C705.45,445.75 704.94,453.92 704.53,455.65 C703.07,461.94 710.41,465.39 714.95,460.55 ZM 547.58 442.39 C556.75,438.04 557.70,422.65 549.06,418.34 C547.78,417.70 546.35,416.58 545.88,415.84 C545.41,415.10 545.02,404.22 545.02,391.66 L 545.00 368.81 L 556.50 356.75 C562.82,350.11 569.34,343.86 571.00,342.86 C576.44,339.55 574.21,331.00 567.90,331.00 C564.84,331.00 562.00,334.11 562.00,337.45 C562.00,339.33 547.52,355.00 545.77,355.00 C545.35,355.00 545.01,350.39 545.03,344.75 L 545.06 334.50 L 554.53 324.75 C563.76,315.25 564.13,315.00 568.53,315.00 C572.44,315.00 573.68,315.57 577.75,319.25 C586.09,326.79 585.93,326.44 585.97,337.40 L 586.00 347.30 L 572.75 360.63 L 559.50 373.96 L 558.87 380.73 C558.02,389.94 557.90,403.01 558.63,405.75 L 559.23 408.00 L 584.99 408.00 C606.67,408.00 610.95,408.24 612.00,409.50 C613.75,411.61 617.23,411.37 619.81,408.96 C624.10,404.96 621.45,398.00 615.64,398.00 C613.86,398.00 611.94,398.46 611.38,399.02 C610.73,399.67 602.53,399.94 588.93,399.77 L 567.50 399.50 L 567.21 389.21 L 566.93 378.91 L 580.71 364.41 L 594.50 349.90 L 595.00 339.70 L 595.50 329.50 L 611.46 329.22 L 627.43 328.95 L 642.87 344.47 C651.36,353.01 659.05,360.00 659.96,360.00 C660.86,360.00 662.14,359.46 662.80,358.80 C665.85,355.75 664.05,353.14 647.75,337.06 L 631.50 321.03 L 611.58 321.01 L 591.65 321.00 L 584.43 314.00 L 577.21 307.00 L 568.81 307.00 L 560.40 307.00 L 548.11 319.43 L 535.81 331.87 L 536.13 374.03 L 536.45 416.18 L 533.33 418.84 C529.38,422.20 528.00,424.93 528.00,429.40 C528.00,434.52 530.72,439.44 534.88,441.85 C539.24,444.38 543.05,444.55 547.58,442.39 ZM 565.00 678.50 C564.31,677.67 563.75,675.87 563.75,674.50 C563.75,671.08 565.72,669.00 568.97,669.00 C572.10,669.00 575.00,671.73 575.00,674.67 C575.00,679.09 567.78,681.85 565.00,678.50 ZM 599.65 662.17 C597.72,660.03 597.48,655.92 599.20,654.20 C601.15,652.25 606.78,652.72 607.96,654.93 C609.50,657.80 609.23,659.77 607.00,662.00 C604.51,664.49 601.81,664.55 599.65,662.17 ZM 415.00 535.53 C392.50,531.29 370.78,511.97 363.25,489.50 C360.87,482.39 360.57,480.00 360.58,468.00 C360.59,455.85 360.86,453.70 363.36,446.50 C366.71,436.82 369.49,431.92 376.14,423.93 C384.97,413.32 398.92,404.51 411.73,401.45 C419.60,399.57 438.08,399.61 445.44,401.53 C458.81,405.01 475.59,416.68 482.99,427.64 C496.18,447.19 498.99,468.43 491.40,491.27 C488.23,500.82 482.90,508.96 474.17,517.59 C468.96,522.74 465.31,525.24 457.50,528.99 C452.00,531.63 445.32,534.31 442.65,534.94 C434.72,536.81 423.07,537.06 415.00,535.53 ZM 416.78 500.84 L 417.06 488.18 L 431.78 487.76 C448.84,487.26 454.51,485.83 460.83,480.41 C463.17,478.41 466.29,474.46 467.77,471.64 C470.20,466.98 470.46,465.47 470.48,455.50 C470.50,445.47 470.25,444.00 467.73,438.85 C464.75,432.78 460.76,429.16 453.23,425.69 C448.74,423.61 447.14,423.50 422.00,423.50 L 395.50 423.50 L 395.24 467.50 C394.99,508.43 395.10,511.59 396.73,512.78 C397.92,513.66 401.33,513.98 407.49,513.78 L 416.50 513.50 L 416.78 500.84 ZM 657.65 600.17 C654.33,596.50 656.93,590.00 661.72,590.00 C663.69,590.00 667.00,593.76 667.00,596.00 C667.00,598.51 663.60,602.00 661.15,602.00 C660.14,602.00 658.57,601.18 657.65,600.17 ZM 677.58 571.09 C676.48,569.88 675.98,567.98 676.18,565.84 C676.48,562.73 676.78,562.48 680.46,562.18 C683.35,561.94 684.77,562.33 685.71,563.62 C687.58,566.18 687.31,567.78 684.55,570.55 C681.59,573.50 679.88,573.63 677.58,571.09 ZM 593.59 551.69 C591.38,550.08 591.11,544.18 593.19,542.86 C593.91,542.41 595.97,542.02 597.77,542.02 C600.33,542.00 601.30,542.57 602.22,544.59 C604.69,549.99 598.37,555.19 593.59,551.69 ZM 589.00 486.97 C589.00,485.85 590.39,480.34 592.08,474.72 C593.77,469.10 595.80,462.08 596.60,459.13 C598.56,451.82 599.34,450.50 600.72,452.19 C602.46,454.32 612.22,485.99 611.61,487.56 C611.18,488.69 608.70,489.00 600.03,489.00 C589.61,489.00 589.00,488.89 589.00,486.97 ZM 616.19 355.96 C613.61,353.55 613.42,351.27 615.56,348.22 C618.60,343.88 626.00,346.59 626.00,352.05 C626.00,354.03 621.91,358.00 619.87,358.00 C619.05,358.00 617.39,357.08 616.19,355.96 ZM 537.65 434.17 C535.12,431.37 535.56,427.33 538.62,425.33 C540.96,423.80 541.51,423.77 543.87,425.09 C545.54,426.03 546.62,427.59 546.82,429.37 C547.46,434.87 541.23,438.13 537.65,434.17 ZM 417.67 468.33 C417.30,467.97 417.00,461.89 417.00,454.83 L 417.00 442.00 L 429.60 442.00 L 442.20 442.00 L 445.60 445.40 C448.69,448.49 449.00,449.33 449.00,454.65 C448.99,461.40 446.50,466.48 442.43,468.02 C439.57,469.12 418.71,469.37 417.67,468.33 Z" fill="rgb(254,254,254)"/>
</g>
</svg>