<svg xmlns="http://www.w3.org/2000/svg" viewBox="0 8.859999656677246 289.0400085449219 46.93000030517578" data-asc="0.9052734375" width="289.0400085449219" height="46.93000030517578"><defs/><g fill="#000000"><g transform="translate(0, 0)"><path d="M0 45.26L0 9.47L13.50 9.47Q17.07 9.47 18.95 9.81Q21.58 10.25 23.36 11.49Q25.15 12.72 26.23 14.94Q27.32 17.16 27.32 19.82Q27.32 24.39 24.41 27.55Q21.51 30.71 13.92 30.71L4.74 30.71L4.74 45.26L0 45.26M4.74 26.49L13.99 26.49Q18.58 26.49 20.51 24.78Q22.44 23.07 22.44 19.97Q22.44 17.72 21.30 16.13Q20.17 14.53 18.31 14.01Q17.11 13.70 13.89 13.70L4.74 13.70L4.74 26.49ZM32.69 45.26L32.69 9.47L37.08 9.47L37.08 45.26L32.69 45.26ZM60.82 42.07Q58.37 44.14 56.12 45.00Q53.86 45.85 51.27 45.85Q47.00 45.85 44.70 43.76Q42.41 41.67 42.41 38.43Q42.41 36.52 43.27 34.95Q44.14 33.37 45.54 32.42Q46.95 31.47 48.71 30.98Q50 30.64 52.61 30.32Q57.93 29.69 60.45 28.81Q60.47 27.91 60.47 27.66Q60.47 24.98 59.23 23.88Q57.54 22.39 54.22 22.39Q51.12 22.39 49.65 23.47Q48.17 24.56 47.46 27.32L43.16 26.73Q43.75 23.97 45.09 22.28Q46.44 20.58 48.97 19.67Q51.51 18.75 54.86 18.75Q58.18 18.75 60.25 19.53Q62.33 20.31 63.31 21.50Q64.28 22.68 64.67 24.49Q64.89 25.61 64.89 28.54L64.89 34.40Q64.89 40.53 65.17 42.15Q65.45 43.77 66.28 45.26L61.69 45.26Q61.01 43.90 60.82 42.07M60.45 32.25Q58.06 33.23 53.27 33.91Q50.56 34.30 49.44 34.79Q48.32 35.28 47.71 36.22Q47.09 37.16 47.09 38.31Q47.09 40.06 48.43 41.24Q49.76 42.41 52.32 42.41Q54.86 42.41 56.84 41.30Q58.81 40.19 59.74 38.26Q60.45 36.77 60.45 33.86L60.45 32.25ZM70.90 47.41L75.17 48.05Q75.44 50.02 76.66 50.93Q78.30 52.15 81.13 52.15Q84.18 52.15 85.84 50.93Q87.50 49.71 88.09 47.51Q88.43 46.17 88.40 41.87Q85.52 45.26 81.23 45.26Q75.88 45.26 72.95 41.41Q70.02 37.55 70.02 32.15Q70.02 28.44 71.36 25.31Q72.71 22.17 75.26 20.46Q77.81 18.75 81.25 18.75Q85.84 18.75 88.82 22.46L88.82 19.34L92.87 19.34L92.87 41.75Q92.87 47.80 91.64 50.33Q90.41 52.86 87.73 54.32Q85.06 55.79 81.15 55.79Q76.51 55.79 73.66 53.70Q70.80 51.61 70.90 47.41M74.54 31.84Q74.54 36.94 76.56 39.28Q78.59 41.63 81.64 41.63Q84.67 41.63 86.72 39.29Q88.77 36.96 88.77 31.98Q88.77 27.22 86.66 24.80Q84.55 22.39 81.57 22.39Q78.64 22.39 76.59 24.77Q74.54 27.15 74.54 31.84ZM99.54 14.53L99.54 9.47L103.93 9.47L103.93 14.53L99.54 14.53M99.54 45.26L99.54 19.34L103.93 19.34L103.93 45.26L99.54 45.26ZM127.93 31.23L127.93 27.03L143.09 27.00L143.09 40.28Q139.60 43.07 135.89 44.47Q132.18 45.87 128.27 45.87Q123.00 45.87 118.69 43.62Q114.38 41.36 112.18 37.08Q109.99 32.81 109.99 27.54Q109.99 22.31 112.17 17.79Q114.36 13.26 118.46 11.06Q122.56 8.86 127.91 8.86Q131.79 8.86 134.92 10.12Q138.06 11.38 139.84 13.62Q141.63 15.87 142.55 19.48L138.28 20.65Q137.48 17.92 136.28 16.36Q135.08 14.79 132.86 13.85Q130.64 12.92 127.93 12.92Q124.68 12.92 122.31 13.90Q119.95 14.89 118.49 16.50Q117.04 18.12 116.24 20.04Q114.87 23.36 114.87 27.25Q114.87 32.03 116.52 35.25Q118.16 38.48 121.31 40.04Q124.46 41.60 128.00 41.60Q131.08 41.60 134.01 40.42Q136.94 39.23 138.45 37.89L138.45 31.23L127.93 31.23ZM166.50 45.26L166.50 41.46Q163.48 45.85 158.28 45.85Q155.98 45.85 153.99 44.97Q152.00 44.09 151.04 42.76Q150.07 41.43 149.68 39.50Q149.41 38.21 149.41 35.40L149.41 19.34L153.81 19.34L153.81 33.72Q153.81 37.16 154.08 38.35Q154.49 40.09 155.83 41.08Q157.18 42.07 159.16 42.07Q161.13 42.07 162.87 41.05Q164.60 40.04 165.32 38.29Q166.04 36.55 166.04 33.23L166.04 19.34L170.43 19.34L170.43 45.26L166.50 45.26ZM194.24 42.07Q191.80 44.14 189.54 45.00Q187.28 45.85 184.69 45.85Q180.42 45.85 178.13 43.76Q175.83 41.67 175.83 38.43Q175.83 36.52 176.70 34.95Q177.56 33.37 178.97 32.42Q180.37 31.47 182.13 30.98Q183.42 30.64 186.04 30.32Q191.36 29.69 193.87 28.81Q193.90 27.91 193.90 27.66Q193.90 24.98 192.65 23.88Q190.97 22.39 187.65 22.39Q184.55 22.39 183.07 23.47Q181.59 24.56 180.88 27.32L176.59 26.73Q177.17 23.97 178.52 22.28Q179.86 20.58 182.40 19.67Q184.94 18.75 188.28 18.75Q191.60 18.75 193.68 19.53Q195.75 20.31 196.73 21.50Q197.71 22.68 198.10 24.49Q198.32 25.61 198.32 28.54L198.32 34.40Q198.32 40.53 198.60 42.15Q198.88 43.77 199.71 45.26L195.12 45.26Q194.43 43.90 194.24 42.07M193.87 32.25Q191.48 33.23 186.69 33.91Q183.98 34.30 182.86 34.79Q181.74 35.28 181.13 36.22Q180.52 37.16 180.52 38.31Q180.52 40.06 181.85 41.24Q183.18 42.41 185.74 42.41Q188.28 42.41 190.26 41.30Q192.24 40.19 193.16 38.26Q193.87 36.77 193.87 33.86L193.87 32.25ZM205.08 45.26L205.08 19.34L209.03 19.34L209.03 23.27Q210.55 20.51 211.83 19.63Q213.11 18.75 214.65 18.75Q216.87 18.75 219.17 20.17L217.65 24.24Q216.04 23.29 214.43 23.29Q212.99 23.29 211.84 24.16Q210.69 25.02 210.21 26.56Q209.47 28.91 209.47 31.69L209.47 45.26L205.08 45.26ZM238.60 45.26L238.60 41.99Q236.13 45.85 231.35 45.85Q228.25 45.85 225.65 44.14Q223.05 42.43 221.62 39.37Q220.19 36.30 220.19 32.32Q220.19 28.44 221.48 25.28Q222.78 22.12 225.37 20.43Q227.95 18.75 231.15 18.75Q233.50 18.75 235.33 19.74Q237.16 20.73 238.31 22.31L238.31 9.47L242.68 9.47L242.68 45.26L238.60 45.26M224.71 32.32Q224.71 37.30 226.81 39.77Q228.91 42.24 231.76 42.24Q234.64 42.24 236.66 39.88Q238.67 37.52 238.67 32.69Q238.67 27.37 236.62 24.88Q234.57 22.39 231.57 22.39Q228.64 22.39 226.67 24.78Q224.71 27.17 224.71 32.32ZM246.22 45.26L259.96 9.47L265.06 9.47L279.71 45.26L274.32 45.26L270.14 34.42L255.18 34.42L251.25 45.26L246.22 45.26M256.54 30.57L268.68 30.57L264.94 20.65Q263.23 16.14 262.40 13.23Q261.72 16.67 260.47 20.07L256.54 30.57ZM284.30 45.26L284.30 9.47L289.04 9.47L289.04 45.26L284.30 45.26Z"/></g></g></svg>