<svg xmlns="http://www.w3.org/2000/svg" viewBox="0 14 322.6000061035156 52.099998474121094" data-asc="1.05" width="322.6000061035156" height="52.099998474121094"><defs/><g fill="#000000"><g transform="translate(0, 0)"><path d="M24.30 28.10Q24.30 30.75 23.05 33.10Q21.80 35.45 19.05 36.92Q16.30 38.40 12 38.40L5.70 38.40L5.70 52.50L0 52.50L0 17.75L12 17.75Q16 17.75 18.78 19.13Q21.55 20.50 22.93 22.85Q24.30 25.20 24.30 28.10M12 33.75Q15.25 33.75 16.85 32.27Q18.45 30.80 18.45 28.10Q18.45 22.40 12 22.40L5.70 22.40L5.70 33.75L12 33.75ZM35.45 15.50L35.45 52.50L29.75 52.50L29.75 15.50L35.45 15.50ZM41.05 38.60Q41.05 34.45 42.78 31.25Q44.50 28.05 47.48 26.27Q50.45 24.50 54.05 24.50Q57.30 24.50 59.73 25.77Q62.15 27.05 63.60 28.95L63.60 24.95L69.35 24.95L69.35 52.50L63.60 52.50L63.60 48.40Q62.15 50.35 59.65 51.65Q57.15 52.95 53.95 52.95Q50.40 52.95 47.45 51.13Q44.50 49.30 42.78 46.02Q41.05 42.75 41.05 38.60M63.60 38.70Q63.60 35.85 62.43 33.75Q61.25 31.65 59.35 30.55Q57.45 29.45 55.25 29.45Q53.05 29.45 51.15 30.52Q49.25 31.60 48.08 33.67Q46.90 35.75 46.90 38.60Q46.90 41.45 48.08 43.60Q49.25 45.75 51.18 46.88Q53.10 48 55.25 48Q57.45 48 59.35 46.90Q61.25 45.80 62.43 43.67Q63.60 41.55 63.60 38.70ZM87.95 24.50Q91.15 24.50 93.63 25.77Q96.10 27.05 97.50 28.95L97.50 24.95L103.25 24.95L103.25 52.95Q103.25 56.75 101.65 59.73Q100.05 62.70 97.02 64.40Q94 66.10 89.80 66.10Q84.20 66.10 80.50 63.48Q76.80 60.85 76.30 56.35L81.95 56.35Q82.60 58.50 84.72 59.83Q86.85 61.15 89.80 61.15Q93.25 61.15 95.38 59.05Q97.50 56.95 97.50 52.95L97.50 48.35Q96.05 50.30 93.57 51.63Q91.10 52.95 87.95 52.95Q84.35 52.95 81.38 51.13Q78.40 49.30 76.67 46.02Q74.95 42.75 74.95 38.60Q74.95 34.45 76.67 31.25Q78.40 28.05 81.38 26.27Q84.35 24.50 87.95 24.50M97.50 38.70Q97.50 35.85 96.32 33.75Q95.15 31.65 93.25 30.55Q91.35 29.45 89.15 29.45Q86.95 29.45 85.05 30.52Q83.15 31.60 81.97 33.67Q80.80 35.75 80.80 38.60Q80.80 41.45 81.97 43.60Q83.15 45.75 85.07 46.88Q87 48 89.15 48Q91.35 48 93.25 46.90Q95.15 45.80 96.32 43.67Q97.50 41.55 97.50 38.70ZM113.65 21.30Q112.10 21.30 111.05 20.25Q110 19.20 110 17.65Q110 16.10 111.05 15.05Q112.10 14 113.65 14Q115.15 14 116.20 15.05Q117.25 16.10 117.25 17.65Q117.25 19.20 116.20 20.25Q115.15 21.30 113.65 21.30M116.45 24.95L116.45 52.50L110.75 52.50L110.75 24.95L116.45 24.95ZM149.10 27.75Q147.75 25.15 145.35 23.82Q142.95 22.50 139.80 22.50Q136.35 22.50 133.65 24.05Q130.95 25.60 129.43 28.45Q127.90 31.30 127.90 35.05Q127.90 38.80 129.43 41.67Q130.95 44.55 133.65 46.10Q136.35 47.65 139.80 47.65Q144.45 47.65 147.35 45.05Q150.25 42.45 150.90 38L137.85 38L137.85 33.45L157 33.45L157 37.90Q156.45 41.95 154.13 45.35Q151.80 48.75 148.07 50.77Q144.35 52.80 139.80 52.80Q134.90 52.80 130.85 50.52Q126.80 48.25 124.42 44.20Q122.05 40.15 122.05 35.05Q122.05 29.95 124.42 25.90Q126.80 21.85 130.88 19.57Q134.95 17.30 139.80 17.30Q145.35 17.30 149.68 20.02Q154 22.75 155.95 27.75L149.10 27.75ZM187.55 24.95L187.55 52.50L181.85 52.50L181.85 49.25Q180.50 50.95 178.33 51.92Q176.15 52.90 173.70 52.90Q170.45 52.90 167.88 51.55Q165.30 50.20 163.83 47.55Q162.35 44.90 162.35 41.15L162.35 24.95L168.00 24.95L168.00 40.30Q168.00 44 169.85 45.98Q171.70 47.95 174.90 47.95Q178.10 47.95 179.98 45.98Q181.85 44 181.85 40.30L181.85 24.95L187.55 24.95ZM193.15 38.60Q193.15 34.45 194.88 31.25Q196.60 28.05 199.58 26.27Q202.55 24.50 206.15 24.50Q209.40 24.50 211.83 25.77Q214.25 27.05 215.70 28.95L215.70 24.95L221.45 24.95L221.45 52.50L215.70 52.50L215.70 48.40Q214.25 50.35 211.75 51.65Q209.25 52.95 206.05 52.95Q202.50 52.95 199.55 51.13Q196.60 49.30 194.88 46.02Q193.15 42.75 193.15 38.60M215.70 38.70Q215.70 35.85 214.53 33.75Q213.35 31.65 211.45 30.55Q209.55 29.45 207.35 29.45Q205.15 29.45 203.25 30.52Q201.35 31.60 200.18 33.67Q199 35.75 199 38.60Q199 41.45 200.18 43.60Q201.35 45.75 203.28 46.88Q205.20 48 207.35 48Q209.55 48 211.45 46.90Q213.35 45.80 214.53 43.67Q215.70 41.55 215.70 38.70ZM234.65 28.95Q235.90 26.85 237.98 25.67Q240.05 24.50 242.90 24.50L242.90 30.40L241.45 30.40Q238.10 30.40 236.38 32.10Q234.65 33.80 234.65 38L234.65 52.50L228.95 52.50L228.95 24.95L234.65 24.95L234.65 28.95ZM246.25 38.60Q246.25 34.45 247.98 31.25Q249.70 28.05 252.68 26.27Q255.65 24.50 259.30 24.50Q262.00 24.50 264.63 25.67Q267.25 26.85 268.80 28.80L268.80 15.50L274.55 15.50L274.55 52.50L268.80 52.50L268.80 48.35Q267.40 50.35 264.93 51.65Q262.45 52.95 259.25 52.95Q255.65 52.95 252.68 51.13Q249.70 49.30 247.98 46.02Q246.25 42.75 246.25 38.60M268.80 38.70Q268.80 35.85 267.63 33.75Q266.45 31.65 264.55 30.55Q262.65 29.45 260.45 29.45Q258.25 29.45 256.35 30.52Q254.45 31.60 253.28 33.67Q252.10 35.75 252.10 38.60Q252.10 41.45 253.28 43.60Q254.45 45.75 256.38 46.88Q258.30 48 260.45 48Q262.65 48 264.55 46.90Q266.45 45.80 267.63 43.67Q268.80 41.55 268.80 38.70ZM303 45.40L288.45 45.40L285.95 52.50L280 52.50L292.45 17.70L299.05 17.70L311.50 52.50L305.50 52.50L303 45.40M301.40 40.75L295.75 24.60L290.05 40.75L301.40 40.75ZM322.60 17.75L322.60 52.50L316.90 52.50L316.90 17.75L322.60 17.75Z"/></g></g></svg>