<svg id="svg" fill="#009ef7" stroke="#009ef7" width="200" height="200" version="1.1" viewBox="144 144 512 512" xmlns="http://www.w3.org/2000/svg" stroke-width="4">
    <g id="IconSvg_bgCarrier" stroke-width="0"></g>
    <g id="IconSvg_tracerCarrier" stroke-linecap="round" stroke-linejoin="round" stroke="#CCCCCC" stroke-width="0">
      <g xmlns="http://www.w3.org/2000/svg">
  <path d="m369.27 269.51h-17.129c-3.0234 0-5.0391-2.0156-5.0391-5.0391 0-3.0234 2.0156-5.0391 5.0391-5.0391h17.129c3.0234 0 5.0391 2.0156 5.0391 5.0391 0 3.0234-2.5195 5.0391-5.0391 5.0391z"></path>
  <path d="m522.93 269.51h-24.688v-22.672c0-3.0234-2.0156-5.0391-5.0391-5.0391h-184.9c-3.0234 0-5.0391 2.0156-5.0391 5.0391v22.672h-24.688c-7.0547 0-12.594 5.543-12.594 12.594v41.816c0 22.168 17.129 40.305 39.297 42.32 6.5508 36.273 33.25 66 68.52 76.074 2.0156 7.0547 3.0234 14.105 3.0234 21.664 0 17.633-5.543 34.762-15.617 47.863h-16.625c-10.578 0-19.145 8.5664-19.145 19.145v68.016h-46.352c-3.0234 0-5.0391 2.0156-5.0391 5.0391 0 3.0234 2.0156 5.0391 5.0391 5.0391h225.2c3.0234 0 5.0391-2.0156 5.0391-5.0391 0-3.0234-2.0156-5.0391-5.0391-5.0391h-27.207l0.003906-68.016c0-10.578-8.5664-19.145-19.145-19.145h-15.113c-10.078-13.098-15.617-30.23-15.617-47.863 0-7.5586 1.0078-14.609 3.0234-21.664 34.258-10.578 60.457-39.801 67.008-76.074 21.664-1.5117 39.297-20.152 39.297-42.32v-41.816c-1.0117-7.0508-6.5547-12.594-13.605-12.594zm-219.66 86.152c-15.617-2.5195-27.207-15.617-27.207-32.242v-41.816c0-1.5117 1.0078-2.5195 2.5195-2.5195h24.688zm163.23 175.32v68.016h-131.49v-44.84h59.449c3.0234 0 5.0391-2.0156 5.0391-5.0391s-2.0156-5.0391-5.0391-5.0391l-59.449 0.003906v-13.102c0-5.0391 4.0312-9.0703 9.0703-9.0703h18.641 0.50391 0.50391 94.211c4.5352-0.5 8.5625 3.5273 8.5625 9.0703zm-48.363-86.656c-1.5117 6.5508-2.0156 12.594-2.0156 19.145 0 17.129 4.5352 33.754 13.602 47.863h-56.93c8.5664-14.105 13.602-30.73 13.602-47.863 0-6.5508-0.50391-12.594-2.0156-19.145h1.5117c2.0156 0.50391 4.5352 0.50391 6.5508 1.0078 2.0156 0 3.5273 0 5.543 0.50391h3.0234 0.50391c3.0234 0 6.0469 0 9.0703-0.50391 2.5195 0 5.0391-0.50391 7.5586-1.0078h-0.003906zm5.5391-11.586c-3.0234 1.0078-5.543 1.5117-8.5664 2.0156-1.0078 0-2.5195 0.50391-3.5273 0.50391-1.0078 0-2.0156 0.50391-3.0234 0.50391-2.5195 0-4.5352 0.50391-7.0547 0.50391h-2.0156c-2.0156 0-3.5273 0-5.543-0.50391-1.0078 0-2.5195 0-3.5273-0.50391-0.50391 0-1.5117 0-2.0156-0.50391-3.0234-0.50391-6.0469-1.0078-9.5742-2.0156-37.785-9.5742-65.496-43.832-65.496-84.641l0.011719-73.555v-22.672h174.82v8.0625h-88.164c-3.0234 0-5.0391 2.0156-5.0391 5.0391 0 3.0234 2.0156 5.0391 5.0391 5.0391h88.168v79.098c-0.003907 39.797-27.711 73.555-64.492 83.629zm101.77-109.33c0 16.121-12.09 29.727-27.207 32.242v-7.0547l0.003907-69.016h24.688c1.5117 0 2.5195 1.0078 2.5195 2.5195z"></path>
  <path d="m408.56 553.66h17.129c3.0234 0 5.0391-2.0156 5.0391-5.0391 0-3.0234-2.0156-5.0391-5.0391-5.0391h-17.129c-3.0234 0-5.0391 2.0156-5.0391 5.0391 0 3.0234 2.0156 5.0391 5.0391 5.0391z"></path>
  <path d="m554.67 608.57h-23.68c-3.0234 0-5.0391-2.0156-5.0391-5.0391 0-3.0234 2.0156-5.0391 5.0391-5.0391h23.68c3.0234 0 5.0391 2.0156 5.0391 5.0391 0 3.0234-2.5195 5.0391-5.0391 5.0391z"></path>
  <path d="m400 210.06c-3.0234 0-5.0391-2.0156-5.0391-5.0391v-21.664c0-3.0234 2.0156-5.0391 5.0391-5.0391s5.0391 2.0156 5.0391 5.0391v21.664c-0.003906 3.0234-2.0195 5.0391-5.0391 5.0391z"></path>
  <path d="m451.89 214.6c-1.5117 0-2.5195-0.50391-3.5273-1.5117-2.0156-2.0156-2.0156-5.0391 0-7.0547l15.617-15.617c2.0156-2.0156 5.0391-2.0156 7.0547 0 2.0156 2.0156 2.0156 5.0391 0 7.0547l-15.617 15.617c-1.0078 1.0078-2.0156 1.5117-3.5273 1.5117z"></path>
  <path d="m351.63 214.6c-1.5117 0-2.5195-0.50391-3.5273-1.5117l-15.617-15.617c-2.0156-2.0156-2.0156-5.0391 0-7.0547 2.0156-2.0156 5.0391-2.0156 7.0547 0l15.617 15.617c2.0156 2.0156 2.0156 5.0391 0 7.0547-1.0078 1.0078-2.0156 1.5117-3.5273 1.5117z"></path>
  <path d="m400.5 303.77 9.0664 18.137 20.152 3.0234-14.609 14.109 3.5273 19.648-18.137-9.5742-17.637 9.5742 3.5273-19.648-14.609-14.109 20.152-3.0234z"></path>
  <path d="m434.76 422.67c-1.0078 0-1.5117-0.50391-2.0156-1.5117-0.50391-1.0078 0-2.5195 1.0078-3.5273 13.098-7.5586 24.688-18.137 32.746-31.234 0.50391-1.0078 2.5195-1.5117 3.5273-1.0078 1.0078 0.50391 1.5117 2.5195 1.0078 3.5273-8.5664 13.602-20.152 25.191-34.258 32.746-1.0078 1.0078-1.5117 1.0078-2.0156 1.0078z"></path>
  <path d="m474.56 378.84h-1.0078c-1.5117-0.50391-2.0156-2.0156-1.5117-3.5273 2.5195-6.0469 4.5352-12.09 5.543-18.137 0.50391-1.5117 1.5117-2.5195 3.0234-2.0156s2.0156 1.5117 2.0156 3.0234c-1.5117 6.5508-3.5273 13.098-6.0469 19.145 0 1.0078-1.0078 1.5117-2.0156 1.5117z"></path>
 </g>

      </g>
     <g id="IconSvg_iconCarrier">
      <g xmlns="http://www.w3.org/2000/svg">
  <path d="m369.27 269.51h-17.129c-3.0234 0-5.0391-2.0156-5.0391-5.0391 0-3.0234 2.0156-5.0391 5.0391-5.0391h17.129c3.0234 0 5.0391 2.0156 5.0391 5.0391 0 3.0234-2.5195 5.0391-5.0391 5.0391z"></path>
  <path d="m522.93 269.51h-24.688v-22.672c0-3.0234-2.0156-5.0391-5.0391-5.0391h-184.9c-3.0234 0-5.0391 2.0156-5.0391 5.0391v22.672h-24.688c-7.0547 0-12.594 5.543-12.594 12.594v41.816c0 22.168 17.129 40.305 39.297 42.32 6.5508 36.273 33.25 66 68.52 76.074 2.0156 7.0547 3.0234 14.105 3.0234 21.664 0 17.633-5.543 34.762-15.617 47.863h-16.625c-10.578 0-19.145 8.5664-19.145 19.145v68.016h-46.352c-3.0234 0-5.0391 2.0156-5.0391 5.0391 0 3.0234 2.0156 5.0391 5.0391 5.0391h225.2c3.0234 0 5.0391-2.0156 5.0391-5.0391 0-3.0234-2.0156-5.0391-5.0391-5.0391h-27.207l0.003906-68.016c0-10.578-8.5664-19.145-19.145-19.145h-15.113c-10.078-13.098-15.617-30.23-15.617-47.863 0-7.5586 1.0078-14.609 3.0234-21.664 34.258-10.578 60.457-39.801 67.008-76.074 21.664-1.5117 39.297-20.152 39.297-42.32v-41.816c-1.0117-7.0508-6.5547-12.594-13.605-12.594zm-219.66 86.152c-15.617-2.5195-27.207-15.617-27.207-32.242v-41.816c0-1.5117 1.0078-2.5195 2.5195-2.5195h24.688zm163.23 175.32v68.016h-131.49v-44.84h59.449c3.0234 0 5.0391-2.0156 5.0391-5.0391s-2.0156-5.0391-5.0391-5.0391l-59.449 0.003906v-13.102c0-5.0391 4.0312-9.0703 9.0703-9.0703h18.641 0.50391 0.50391 94.211c4.5352-0.5 8.5625 3.5273 8.5625 9.0703zm-48.363-86.656c-1.5117 6.5508-2.0156 12.594-2.0156 19.145 0 17.129 4.5352 33.754 13.602 47.863h-56.93c8.5664-14.105 13.602-30.73 13.602-47.863 0-6.5508-0.50391-12.594-2.0156-19.145h1.5117c2.0156 0.50391 4.5352 0.50391 6.5508 1.0078 2.0156 0 3.5273 0 5.543 0.50391h3.0234 0.50391c3.0234 0 6.0469 0 9.0703-0.50391 2.5195 0 5.0391-0.50391 7.5586-1.0078h-0.003906zm5.5391-11.586c-3.0234 1.0078-5.543 1.5117-8.5664 2.0156-1.0078 0-2.5195 0.50391-3.5273 0.50391-1.0078 0-2.0156 0.50391-3.0234 0.50391-2.5195 0-4.5352 0.50391-7.0547 0.50391h-2.0156c-2.0156 0-3.5273 0-5.543-0.50391-1.0078 0-2.5195 0-3.5273-0.50391-0.50391 0-1.5117 0-2.0156-0.50391-3.0234-0.50391-6.0469-1.0078-9.5742-2.0156-37.785-9.5742-65.496-43.832-65.496-84.641l0.011719-73.555v-22.672h174.82v8.0625h-88.164c-3.0234 0-5.0391 2.0156-5.0391 5.0391 0 3.0234 2.0156 5.0391 5.0391 5.0391h88.168v79.098c-0.003907 39.797-27.711 73.555-64.492 83.629zm101.77-109.33c0 16.121-12.09 29.727-27.207 32.242v-7.0547l0.003907-69.016h24.688c1.5117 0 2.5195 1.0078 2.5195 2.5195z"></path>
  <path d="m408.56 553.66h17.129c3.0234 0 5.0391-2.0156 5.0391-5.0391 0-3.0234-2.0156-5.0391-5.0391-5.0391h-17.129c-3.0234 0-5.0391 2.0156-5.0391 5.0391 0 3.0234 2.0156 5.0391 5.0391 5.0391z"></path>
  <path d="m554.67 608.57h-23.68c-3.0234 0-5.0391-2.0156-5.0391-5.0391 0-3.0234 2.0156-5.0391 5.0391-5.0391h23.68c3.0234 0 5.0391 2.0156 5.0391 5.0391 0 3.0234-2.5195 5.0391-5.0391 5.0391z"></path>
  <path d="m400 210.06c-3.0234 0-5.0391-2.0156-5.0391-5.0391v-21.664c0-3.0234 2.0156-5.0391 5.0391-5.0391s5.0391 2.0156 5.0391 5.0391v21.664c-0.003906 3.0234-2.0195 5.0391-5.0391 5.0391z"></path>
  <path d="m451.89 214.6c-1.5117 0-2.5195-0.50391-3.5273-1.5117-2.0156-2.0156-2.0156-5.0391 0-7.0547l15.617-15.617c2.0156-2.0156 5.0391-2.0156 7.0547 0 2.0156 2.0156 2.0156 5.0391 0 7.0547l-15.617 15.617c-1.0078 1.0078-2.0156 1.5117-3.5273 1.5117z"></path>
  <path d="m351.63 214.6c-1.5117 0-2.5195-0.50391-3.5273-1.5117l-15.617-15.617c-2.0156-2.0156-2.0156-5.0391 0-7.0547 2.0156-2.0156 5.0391-2.0156 7.0547 0l15.617 15.617c2.0156 2.0156 2.0156 5.0391 0 7.0547-1.0078 1.0078-2.0156 1.5117-3.5273 1.5117z"></path>
  <path d="m400.5 303.77 9.0664 18.137 20.152 3.0234-14.609 14.109 3.5273 19.648-18.137-9.5742-17.637 9.5742 3.5273-19.648-14.609-14.109 20.152-3.0234z"></path>
  <path d="m434.76 422.67c-1.0078 0-1.5117-0.50391-2.0156-1.5117-0.50391-1.0078 0-2.5195 1.0078-3.5273 13.098-7.5586 24.688-18.137 32.746-31.234 0.50391-1.0078 2.5195-1.5117 3.5273-1.0078 1.0078 0.50391 1.5117 2.5195 1.0078 3.5273-8.5664 13.602-20.152 25.191-34.258 32.746-1.0078 1.0078-1.5117 1.0078-2.0156 1.0078z"></path>
  <path d="m474.56 378.84h-1.0078c-1.5117-0.50391-2.0156-2.0156-1.5117-3.5273 2.5195-6.0469 4.5352-12.09 5.543-18.137 0.50391-1.5117 1.5117-2.5195 3.0234-2.0156s2.0156 1.5117 2.0156 3.0234c-1.5117 6.5508-3.5273 13.098-6.0469 19.145 0 1.0078-1.0078 1.5117-2.0156 1.5117z"></path>
 </g>

      </g>
      </svg>